<mxfile host="app.diagrams.net" modified="2023-10-16T01:45:14.476Z" agent="Mozilla/5.0 (Windows NT 10.0; Win64; x64; rv:109.0) Gecko/20100101 Firefox/118.0" etag="JvLuPvrbfwLlkovIEtuE" version="22.0.4" type="github">
  <diagram id="C5RBs43oDa-KdzZeNtuy" name="Page-1">
    <mxGraphModel dx="766" dy="416" grid="1" gridSize="10" guides="1" tooltips="1" connect="1" arrows="1" fold="1" page="1" pageScale="1" pageWidth="827" pageHeight="1169" math="0" shadow="0">
      <root>
        <mxCell id="WIyWlLk6GJQsqaUBKTNV-0" />
        <mxCell id="WIyWlLk6GJQsqaUBKTNV-1" parent="WIyWlLk6GJQsqaUBKTNV-0" />
        <mxCell id="VEffS6AohVLWmiBN5bgm-0" style="edgeStyle=orthogonalEdgeStyle;rounded=0;orthogonalLoop=1;jettySize=auto;html=1;exitX=0.5;exitY=1;exitDx=0;exitDy=0;exitPerimeter=0;entryX=0.5;entryY=0;entryDx=0;entryDy=0;" edge="1" parent="WIyWlLk6GJQsqaUBKTNV-1" source="VEffS6AohVLWmiBN5bgm-1" target="VEffS6AohVLWmiBN5bgm-3">
          <mxGeometry relative="1" as="geometry" />
        </mxCell>
        <mxCell id="VEffS6AohVLWmiBN5bgm-1" value="star" style="strokeWidth=2;html=1;shape=mxgraph.flowchart.terminator;whiteSpace=wrap;" vertex="1" parent="WIyWlLk6GJQsqaUBKTNV-1">
          <mxGeometry x="364" y="20" width="100" height="60" as="geometry" />
        </mxCell>
        <mxCell id="VEffS6AohVLWmiBN5bgm-2" style="edgeStyle=orthogonalEdgeStyle;rounded=0;orthogonalLoop=1;jettySize=auto;html=1;exitX=0.5;exitY=1;exitDx=0;exitDy=0;entryX=0.5;entryY=0;entryDx=0;entryDy=0;" edge="1" parent="WIyWlLk6GJQsqaUBKTNV-1" source="VEffS6AohVLWmiBN5bgm-3" target="VEffS6AohVLWmiBN5bgm-4">
          <mxGeometry relative="1" as="geometry" />
        </mxCell>
        <mxCell id="VEffS6AohVLWmiBN5bgm-3" value="integer bilangan" style="shape=internalStorage;whiteSpace=wrap;html=1;dx=15;dy=15;rounded=1;arcSize=8;strokeWidth=2;" vertex="1" parent="WIyWlLk6GJQsqaUBKTNV-1">
          <mxGeometry x="330" y="110" width="160" height="70" as="geometry" />
        </mxCell>
        <mxCell id="VEffS6AohVLWmiBN5bgm-4" value="input bilangan" style="shape=parallelogram;html=1;strokeWidth=2;perimeter=parallelogramPerimeter;whiteSpace=wrap;rounded=1;arcSize=12;size=0.23;" vertex="1" parent="WIyWlLk6GJQsqaUBKTNV-1">
          <mxGeometry x="350" y="220" width="120" height="60" as="geometry" />
        </mxCell>
        <mxCell id="VEffS6AohVLWmiBN5bgm-5" style="edgeStyle=orthogonalEdgeStyle;rounded=0;orthogonalLoop=1;jettySize=auto;html=1;exitX=1;exitY=0.5;exitDx=0;exitDy=0;exitPerimeter=0;entryX=0.5;entryY=0;entryDx=0;entryDy=0;" edge="1" parent="WIyWlLk6GJQsqaUBKTNV-1" source="VEffS6AohVLWmiBN5bgm-6" target="VEffS6AohVLWmiBN5bgm-8">
          <mxGeometry relative="1" as="geometry" />
        </mxCell>
        <mxCell id="VEffS6AohVLWmiBN5bgm-6" value="bilangan mood 2==0" style="strokeWidth=2;html=1;shape=mxgraph.flowchart.decision;whiteSpace=wrap;" vertex="1" parent="WIyWlLk6GJQsqaUBKTNV-1">
          <mxGeometry x="300" y="320" width="210" height="100" as="geometry" />
        </mxCell>
        <mxCell id="VEffS6AohVLWmiBN5bgm-7" value="&lt;div&gt;aut put bilangan&lt;/div&gt;&lt;div&gt;ganjil&lt;br&gt;&lt;/div&gt;" style="shape=parallelogram;html=1;strokeWidth=2;perimeter=parallelogramPerimeter;whiteSpace=wrap;rounded=1;arcSize=12;size=0.23;" vertex="1" parent="WIyWlLk6GJQsqaUBKTNV-1">
          <mxGeometry x="180" y="510" width="140" height="60" as="geometry" />
        </mxCell>
        <mxCell id="VEffS6AohVLWmiBN5bgm-8" value="&lt;div&gt;out put bilangan&lt;/div&gt;&lt;div&gt;genap&lt;br&gt;&lt;/div&gt;" style="shape=parallelogram;html=1;strokeWidth=2;perimeter=parallelogramPerimeter;whiteSpace=wrap;rounded=1;arcSize=12;size=0.23;" vertex="1" parent="WIyWlLk6GJQsqaUBKTNV-1">
          <mxGeometry x="500" y="510" width="140" height="60" as="geometry" />
        </mxCell>
        <mxCell id="VEffS6AohVLWmiBN5bgm-9" value="end" style="strokeWidth=2;html=1;shape=mxgraph.flowchart.terminator;whiteSpace=wrap;" vertex="1" parent="WIyWlLk6GJQsqaUBKTNV-1">
          <mxGeometry x="360" y="670" width="100" height="60" as="geometry" />
        </mxCell>
        <mxCell id="VEffS6AohVLWmiBN5bgm-10" style="edgeStyle=orthogonalEdgeStyle;rounded=0;orthogonalLoop=1;jettySize=auto;html=1;exitX=0;exitY=0.5;exitDx=0;exitDy=0;exitPerimeter=0;entryX=0.447;entryY=-0.042;entryDx=0;entryDy=0;entryPerimeter=0;" edge="1" parent="WIyWlLk6GJQsqaUBKTNV-1" source="VEffS6AohVLWmiBN5bgm-6" target="VEffS6AohVLWmiBN5bgm-7">
          <mxGeometry relative="1" as="geometry" />
        </mxCell>
        <mxCell id="VEffS6AohVLWmiBN5bgm-11" style="edgeStyle=orthogonalEdgeStyle;rounded=0;orthogonalLoop=1;jettySize=auto;html=1;exitX=0.25;exitY=1;exitDx=0;exitDy=0;entryX=0.425;entryY=0.017;entryDx=0;entryDy=0;entryPerimeter=0;" edge="1" parent="WIyWlLk6GJQsqaUBKTNV-1" source="VEffS6AohVLWmiBN5bgm-7" target="VEffS6AohVLWmiBN5bgm-9">
          <mxGeometry relative="1" as="geometry">
            <Array as="points">
              <mxPoint x="215" y="620" />
              <mxPoint x="410" y="620" />
              <mxPoint x="410" y="671" />
            </Array>
          </mxGeometry>
        </mxCell>
        <mxCell id="VEffS6AohVLWmiBN5bgm-12" style="edgeStyle=orthogonalEdgeStyle;rounded=0;orthogonalLoop=1;jettySize=auto;html=1;exitX=0.5;exitY=1;exitDx=0;exitDy=0;entryX=0.5;entryY=0;entryDx=0;entryDy=0;entryPerimeter=0;" edge="1" parent="WIyWlLk6GJQsqaUBKTNV-1" source="VEffS6AohVLWmiBN5bgm-8" target="VEffS6AohVLWmiBN5bgm-9">
          <mxGeometry relative="1" as="geometry" />
        </mxCell>
        <mxCell id="VEffS6AohVLWmiBN5bgm-13" style="edgeStyle=orthogonalEdgeStyle;rounded=0;orthogonalLoop=1;jettySize=auto;html=1;exitX=0.5;exitY=1;exitDx=0;exitDy=0;entryX=0.5;entryY=0;entryDx=0;entryDy=0;entryPerimeter=0;" edge="1" parent="WIyWlLk6GJQsqaUBKTNV-1" source="VEffS6AohVLWmiBN5bgm-4" target="VEffS6AohVLWmiBN5bgm-6">
          <mxGeometry relative="1" as="geometry" />
        </mxCell>
      </root>
    </mxGraphModel>
  </diagram>
</mxfile>
